<?xml version="1.0" encoding="utf-8"?>
<svg viewBox="14.262 114.688 438.125 53.1" xmlns="http://www.w3.org/2000/svg">
  <defs>
    <linearGradient id="gradient-22">
      <stop offset="0" style="stop-color: rgb(252, 124, 25);"/>
      <stop offset="1" style="stop-color: rgb(159, 87, 255);"/>
    </linearGradient>
  </defs>
  <g transform="matrix(1, 0, 0, 1, 0, -5)">
    <path style="fill: url(#gradient-22);" d="M 17.561 156.983 L 17.561 125.968 L 14.262 125.968 L 14.592 123.988 L 26.47 123.658 L 26.47 125.638 L 23.83 125.968 L 23.171 156.983 L 29.403 157.13 C 30.478 157.142 30.443 156.359 30.723 154.82 C 31.112 152.686 30.951 150.535 31.089 148.368 L 33.092 148.368 L 33.729 159.256 L 14.592 159.256 L 14.922 157.276 Z M 45.937 145.728 C 50.114 147.878 52.081 139.455 48.247 135.83 C 43.162 131.023 39.332 155.664 48.247 156.616 C 50.601 156.867 52.13 155.379 54.186 153.647 C 56.335 151.837 55.413 159.422 46.597 159.586 C 34.423 159.812 35.856 136.752 42.968 133.85 C 50.503 130.775 56.953 134.088 54.846 143.089 C 54.235 145.7 51.418 147.945 46.597 149.358 C 45.188 149.771 44.916 148.289 45.937 145.728 Z M 76.622 157.936 C 69.846 153.927 70.685 134.918 79.592 133.19 C 86.845 131.783 88.923 136.759 89.16 139.129 C 89.501 142.547 86.723 144.853 84.541 143.419 C 80.32 140.644 84.086 136.87 84.211 136.82 C 82.736 133.904 77.893 136.99 77.612 141.439 C 76.495 159.115 82.84 160.324 88.17 153.977 C 84.862 161.704 79.144 159.428 76.622 157.936 Z M 91.47 123.621 C 93.203 118.913 99.774 118.246 101.038 122.632 L 101.038 136.16 C 106.427 131.756 110.277 132.192 112.587 137.467 L 112.587 154.307 C 112.814 157.457 116.068 157.985 116.216 157.936 C 108.935 160.7 107.529 155.008 107.307 153.248 C 107.306 152.349 107.29 142.835 106.977 137.809 C 106.648 132.53 101.038 137.809 101.038 137.809 L 101.038 158.926 L 95.099 158.596 L 95.099 122.632 C 95.099 122.632 93.12 121.972 91.47 123.621 Z M 107.305 153.236 C 107.306 153.24 107.306 153.244 107.307 153.248 C 107.307 153.294 107.307 153.317 107.307 153.317 C 107.307 153.289 107.306 153.262 107.305 153.236 Z M 107.305 153.236 C 107.234 152.666 107.289 152.521 107.305 153.236 Z M 118.526 136.16 C 124.29 131.869 126.224 131.758 127.764 135.827 L 127.764 154.637 C 128.755 158.667 131.997 157.059 132.37 156.633 C 128.405 161.485 122.1 158.183 122.485 153.977 L 122.815 134.84 C 118.86 136.738 117.326 137.053 118.526 136.16 Z M 132.384 156.616 C 132.38 156.621 132.375 156.627 132.37 156.633 C 132.375 156.627 132.379 156.622 132.384 156.616 Z M 128.425 124.446 C 128.425 126.724 127.021 128.57 125.29 128.57 C 123.559 128.57 122.155 126.724 122.155 124.446 C 122.155 122.168 123.559 120.322 125.29 120.322 C 127.021 120.322 128.425 122.168 128.425 124.446 Z M 140.55 157.8 C 133.774 153.791 134.613 134.782 143.52 133.054 C 150.773 131.647 152.851 136.623 153.088 138.993 C 153.429 142.411 150.651 144.717 148.469 143.283 C 144.248 140.508 148.014 136.734 148.139 136.684 C 146.664 133.768 141.821 136.854 141.54 141.303 C 140.423 158.979 146.768 160.188 152.098 153.841 C 148.79 161.568 143.072 159.292 140.55 157.8 Z M 178.906 135.83 C 176.355 135.83 174.287 140.631 174.287 146.553 C 174.287 152.475 176.355 157.276 178.906 157.276 C 181.457 157.276 183.525 152.475 183.525 146.553 C 183.525 140.631 181.457 135.83 178.906 135.83 Z M 188.145 133.85 L 188.475 153.317 C 188.905 156.681 190.324 158.781 193.424 156.287 C 195.015 155.007 187.392 162.724 183.607 156.107 C 182.459 158.281 173.797 163.358 169.338 152.327 L 169.008 140.411 C 172.38 132.872 178.517 131.038 182.866 136.16 L 182.866 133.823 Z M 174.287 123.622 C 174.177 121.092 174.727 120.762 177.257 121.312 L 183.196 129.891 Z M 205.302 123.622 C 209.46 118.36 215.427 120.814 213.881 122.946 L 213.881 153.647 C 214.414 157.482 218.432 156.585 218.83 156.287 C 214.431 160.466 211.351 160.026 209.592 154.967 L 209.592 121.972 Z M 232.25 135.995 C 229.699 135.995 227.631 140.796 227.631 146.718 C 227.631 152.64 229.699 157.441 232.25 157.441 C 234.801 157.441 236.869 152.64 236.869 146.718 C 236.869 140.796 234.801 135.995 232.25 135.995 Z M 241.489 134.015 L 241.819 153.482 C 242.249 156.846 243.668 158.946 246.768 156.452 C 248.359 155.172 240.736 162.889 236.951 156.272 C 235.803 158.446 227.141 163.523 222.682 152.492 L 222.352 140.576 C 225.724 133.037 231.861 131.203 236.21 136.325 L 236.21 133.988 Z M 308.138 136.325 C 305.587 136.325 303.519 141.126 303.519 147.048 C 303.519 152.97 305.587 157.771 308.138 157.771 C 310.689 157.771 312.757 152.97 312.757 147.048 C 312.757 141.126 310.689 136.325 308.138 136.325 Z M 317.377 134.345 L 317.707 153.812 C 318.137 157.176 319.556 159.276 322.656 156.782 C 324.247 155.502 316.624 163.219 312.839 156.602 C 311.691 158.776 303.029 163.853 298.57 152.822 L 298.24 140.906 C 301.612 133.367 307.749 131.533 312.098 136.655 L 312.098 134.318 Z M 384.026 135.995 C 381.475 135.995 379.407 140.796 379.407 146.718 C 379.407 152.64 381.475 157.441 384.026 157.441 C 386.577 157.441 388.645 152.64 388.645 146.718 C 388.645 140.796 386.577 135.995 384.026 135.995 Z M 393.265 134.015 L 393.595 153.482 C 394.025 156.846 395.444 158.946 398.544 156.452 C 400.135 155.172 392.512 162.889 388.727 156.272 C 387.579 158.446 378.917 163.523 374.458 152.492 L 374.128 140.576 C 377.5 133.037 383.637 131.203 387.986 136.325 L 387.986 133.988 Z M 356.996 158.13 C 350.22 154.121 351.059 135.112 359.966 133.384 C 367.219 131.977 369.297 136.953 369.534 139.323 C 369.875 142.741 367.097 145.047 364.915 143.613 C 360.694 140.838 364.46 137.064 364.585 137.014 C 363.11 134.098 358.267 137.184 357.986 141.633 C 356.869 159.309 363.214 160.518 368.544 154.171 C 365.972 160.179 361.943 160.14 359.092 159.124 L 360.048 163.582 C 363.524 161.686 366.041 165.236 365.657 168.861 C 364.83 176.658 355.142 171.017 357.408 167.565 C 358.816 165.42 361.588 170.181 359.388 171.501 C 363.107 172.517 364.952 165.25 358.728 165.232 L 359.05 159.108 C 358.252 158.82 357.547 158.456 356.996 158.13 Z M 443.074 145.958 C 447.251 148.108 449.218 139.685 445.384 136.06 C 440.299 131.253 436.469 155.894 445.384 156.846 C 447.738 157.097 449.267 155.609 451.323 153.877 C 453.472 152.067 452.55 159.652 443.734 159.816 C 431.56 160.042 432.993 136.982 440.105 134.08 C 447.64 131.005 454.09 134.318 451.983 143.319 C 451.372 145.93 448.555 148.175 443.734 149.588 C 442.325 150.001 442.053 148.519 443.074 145.958 Z M 400.171 136.303 C 405.935 132.012 407.869 131.901 409.409 135.97 L 409.409 154.78 C 410.4 158.81 413.642 157.202 414.015 156.776 C 410.05 161.628 403.745 158.326 404.13 154.12 L 404.46 134.983 C 400.505 136.881 398.971 137.196 400.171 136.303 Z M 414.029 156.759 C 414.025 156.764 414.02 156.77 414.015 156.776 C 414.02 156.77 414.024 156.765 414.029 156.759 Z M 410.07 124.589 C 410.07 126.867 408.666 128.713 406.935 128.713 C 405.204 128.713 403.8 126.867 403.8 124.589 C 403.8 122.311 405.204 120.465 406.935 120.465 C 408.666 120.465 410.07 122.311 410.07 124.589 Z M 263.373 137.186 L 259.414 137.186 L 259.414 134.877 L 263.373 134.882 L 263.373 125.638 C 265.693 118.129 274.237 120.472 275.251 123.988 C 275.607 125.224 274.891 124.305 274.262 123.988 C 270.302 121.995 268.322 122.985 268.322 126.958 C 268.322 129.817 268.322 132.457 268.322 134.877 L 272.612 134.877 L 272.612 136.856 L 268.322 136.856 L 268.322 165.892 L 263.373 165.892 Z M 278.221 138.506 C 274.642 140.254 274.515 133.402 275.911 132.567 C 281.167 129.425 280.658 136.501 280.531 136.526 C 284.82 135.976 288.23 134.876 290.759 132.567 L 290.429 155.663 C 291.419 157.533 292.849 157.863 294.718 156.653 C 290.297 161.716 284.128 159.286 284.82 154.344 L 284.82 138.492 L 279.871 138.506 C 280.091 142.684 279.431 145.764 277.892 147.744 C 277.929 147.673 278.771 144.594 278.221 138.506 Z M 277.892 147.744 C 277.892 147.745 277.891 147.745 277.891 147.745 Z M 332.003 137.186 C 338.897 131.133 344.252 132.56 345.097 138.826 L 345.097 154.343 C 344.114 157.786 348.777 157.934 350.16 156.258 C 347.397 160.842 340.176 160.484 340.581 155.993 C 338.885 157.659 339.258 137.524 339.261 137.516 C 338.529 135.043 335.642 135.086 332.332 138.836 L 332.662 159.623 L 327.713 159.625 L 327.713 136.526 C 326.614 135.096 325.514 134.986 324.414 136.196 C 323.524 134.862 328.032 131.229 332.003 137.186 Z M 350.48 155.663 C 350.418 155.881 350.308 156.08 350.16 156.258 C 350.275 156.068 350.382 155.87 350.48 155.663 Z M 415.48 151.044 L 420.759 137.516 C 418.449 134.547 418.96 131.513 422.739 131.247 C 426.155 131.007 426.104 138.293 423.759 136.875 C 424.535 137.522 439.481 153.318 423.728 159.293 C 421.1 160.29 418.991 159.636 417.401 157.331 C 419.124 158.285 422.805 157.649 425.101 153.353 C 427.666 148.553 423.993 144.038 422.409 141.475 Z M 417.401 157.331 C 416.745 156.968 416.373 156.374 416.469 155.663 C 416.757 156.292 417.067 156.848 417.401 157.331 Z"/>
  </g>
</svg>