<?xml version="1.0" encoding="utf-8"?>
<svg viewBox="26.738 63.396 1191.572 158.598" xmlns="http://www.w3.org/2000/svg" xmlns:bx="https://boxy-svg.com">
  <defs>
    <linearGradient id="gradient-1" bx:pinned="true">
      <stop offset="0" style="stop-color: rgb(0, 63, 228);"/>
      <stop offset="1" style="stop-color: rgb(0, 152, 253);"/>
    </linearGradient>
    <linearGradient gradientUnits="userSpaceOnUse" x1="622.523" y1="63.396" x2="622.523" y2="221.995" id="gradient-0">
      <stop offset="0" style="stop-color: #bada55"/>
      <stop offset="1" style="stop-color: #758d29"/>
    </linearGradient>
  </defs>
  <path style="fill: url(#gradient-1); stroke: url(#gradient-0);" d="M 117.84 183.306 C 108.565 201.855 59.738 176.76 59.738 176.76 C 57.165 189.724 30.03 186.117 27.005 173.486 C 24.254 161.998 43.29 161.856 58.102 169.262 C 61.486 170.954 79.127 114.851 78.56 114.567 C 50.737 100.928 71.195 84.288 71.195 84.288 C 72.77 108.104 77.477 117.105 80.196 109.656 C 93.796 72.4 109.031 60.908 116.204 63.829 C 154.258 79.324 102.908 128.014 88.38 116.203 C 83.47 134.752 76.378 154.664 67.103 171.031 C 69.36 174.98 123.923 188.223 117.84 177.578 C 119.066 178.945 119.066 180.854 117.84 183.306 Z M 117.021 68.74 C 106.656 68.66 97.927 82.924 90.835 111.293 C 114.15 119.051 127.12 68.818 117.021 68.74 Z M 55.646 173.486 C 40.371 169.121 32.657 169.122 32.733 173.486 C 32.867 181.183 50.263 185.086 55.646 173.486 Z M 136.66 160.393 C 140.749 198.934 170.956 168.945 186.578 153.847 C 157.187 207.911 108.58 180.382 131.75 147.3 C 152.047 118.32 177.939 112.077 176.758 129.297 C 175.944 141.161 169.481 151.217 136.66 160.393 Z M 169.121 131.933 C 171.308 121.948 153.348 123.248 138.024 156.483 C 158.407 150.602 167.227 140.579 169.121 131.933 Z M 307.589 160.674 C 311.432 196.896 338.344 172.587 354.537 156.998 C 360.926 121.332 394.97 60.049 403.983 65.648 C 424.396 78.33 374.682 150.083 366.339 148.3 C 360.884 182.943 369.067 186.489 390.889 158.938 C 390.912 159.033 390.933 159.128 390.952 159.224 C 392.168 152.364 395.262 144.438 400.709 136.025 C 410.383 121.083 416.619 122.532 414.383 132.989 C 413.059 139.181 400.235 151.804 399.891 158.12 C 396.173 181.49 409.262 183.659 427.829 160.093 C 428.26 157.403 429.027 154.556 430.169 151.573 C 439.85 126.299 464.844 116.925 471.904 129.478 C 475.182 135.307 473 140.216 466.994 147.481 C 465.17 149.687 458.761 148 462.902 143.39 C 472.832 132.335 465.426 128.831 461.266 129.478 C 443.097 132.302 429.143 168.914 442.444 177.759 C 448.483 181.775 464.138 180.704 476.658 163.938 C 476.824 158.92 478.682 153.334 482.712 147.581 C 503.009 118.601 528.901 112.358 527.72 129.578 C 526.906 141.442 520.443 151.498 487.622 160.674 C 491.711 199.215 521.918 169.226 537.54 154.128 C 514.963 195.658 481.047 189.042 477.037 168.747 C 456.411 196.306 428.526 189.347 427.436 166.661 C 407.226 192.52 389.235 184.73 390.398 163.908 C 389.955 164.961 389.3 166.032 388.434 167.121 C 376.005 182.739 365.639 186.831 357.338 179.396 C 353.57 176.021 352.8 168.978 354.061 159.969 C 331.826 194.663 301.348 188.15 297.109 169.246 C 292.233 174.019 285.849 178.096 277.959 181.474 C 265.85 186.659 259.621 169.136 263.822 160.048 C 251.507 177.856 241.489 185.397 233.769 182.67 C 194.893 168.939 268.107 101.636 272.231 125.386 C 261.745 110.283 219.946 162.428 236.225 173.668 C 257.966 188.679 287.871 87.64 300.055 70.558 C 304.162 61.513 315.117 63.434 310.693 73.013 C 298.245 99.967 282.254 126.581 277.141 155.665 C 272.834 180.166 277.556 185.005 296.833 161.513 C 297.434 157.147 299.287 152.424 302.679 147.581 C 322.976 118.601 348.868 112.358 347.687 129.578 C 346.873 141.442 340.41 151.498 307.589 160.674 Z M 340.05 132.214 C 342.237 122.229 324.277 123.529 308.953 156.764 C 329.336 150.883 338.156 140.86 340.05 132.214 Z M 520.083 132.214 C 522.27 122.229 504.31 123.529 488.986 156.764 C 509.369 150.883 518.189 140.86 520.083 132.214 Z M 659.471 160.674 C 662.813 192.17 683.596 177.9 699.608 163.391 C 699.733 162.457 699.934 161.516 700.218 160.575 C 702.759 152.153 706.306 149.152 710.857 151.573 L 725.586 130.296 L 727.223 119.658 C 729.132 116.93 730.496 115.839 734.588 116.384 L 734.588 130.324 C 742.499 146.409 743.643 158.346 740.316 167.121 C 737.833 173.67 755.244 164.419 761.593 153.21 C 762.58 153.874 761.326 165.789 739.498 174.486 C 740.3 176.091 738.375 180.475 729.661 184.323 C 716.278 190.233 701.629 180.756 699.676 168.46 C 678.033 193.758 652.049 186.202 648.827 168.438 C 648.625 168.765 648.379 169.075 648.089 169.367 C 643.153 174.351 636.606 178.59 628.448 182.083 C 616.339 187.268 610.11 169.745 614.311 160.657 C 601.996 178.465 591.978 186.006 584.258 183.279 C 545.382 169.548 618.596 102.245 622.72 125.995 C 612.234 110.892 570.435 163.037 586.714 174.277 C 608.455 189.288 638.36 88.249 650.544 71.167 C 654.651 62.122 665.606 64.043 661.182 73.622 C 648.734 100.576 632.743 127.19 627.63 156.274 C 623.266 181.097 628.171 185.738 648.088 161.183 C 648.288 161.546 648.467 161.9 648.625 162.247 C 649.112 157.678 650.979 152.696 654.561 147.581 C 674.858 118.601 700.75 112.358 699.569 129.578 C 698.755 141.442 692.292 151.498 659.471 160.674 Z M 691.932 132.214 C 694.119 122.229 676.159 123.529 660.835 156.764 C 681.218 150.883 690.038 140.86 691.932 132.214 Z M 1115.281 161.492 C 1118.66 193.341 1139.874 178.392 1155.955 163.721 C 1156.015 162.271 1156.257 160.799 1156.702 159.324 C 1159.243 150.902 1162.79 147.901 1167.341 150.322 L 1182.07 129.045 L 1183.707 118.407 C 1185.616 115.679 1186.98 114.588 1191.072 115.133 L 1191.072 129.073 C 1198.983 145.158 1200.127 157.095 1196.8 165.87 C 1194.317 172.419 1211.728 163.168 1218.077 151.959 C 1219.064 152.623 1217.81 164.538 1195.982 173.235 C 1196.784 174.84 1194.859 179.224 1186.145 183.072 C 1173.139 188.815 1158.937 180.027 1156.355 168.242 C 1134.259 195.124 1107.205 187.055 1104.521 168.544 C 1092.746 182.656 1082.873 186.143 1074.903 179.005 C 1056.451 162.48 1109.901 58.021 1121.548 65.257 C 1141.961 77.939 1092.247 149.692 1083.904 147.909 C 1078.802 180.312 1085.631 185.51 1104.393 163.501 C 1104.805 158.814 1106.674 153.677 1110.371 148.399 C 1130.668 119.419 1156.56 113.176 1155.379 130.396 C 1154.565 142.26 1148.102 152.316 1115.281 161.492 Z M 1147.742 133.032 C 1149.929 123.047 1131.969 124.347 1116.645 157.582 C 1137.028 151.701 1145.848 141.678 1147.742 133.032 Z M 347.518 108.202 C 344.517 104.656 347.933 98.523 358.156 88.562 C 363.358 83.493 369.087 88.162 363.066 94.29 C 363.066 94.499 347.518 109.943 347.518 108.202 Z M 398.254 80.378 C 386.913 98.831 376.977 119.658 367.976 142.571 C 408.45 93.029 406.868 66.362 398.254 80.378 Z M 1115.819 79.987 C 1104.478 98.44 1094.542 119.267 1085.541 142.18 C 1126.015 92.638 1124.433 65.971 1115.819 79.987 Z M 1068.355 166.73 C 1055.926 182.348 1045.56 186.44 1037.259 179.005 C 1018.807 162.48 1072.257 58.021 1083.904 65.257 C 1104.317 77.939 1054.603 149.692 1046.26 147.909 C 1040.805 182.552 1048.988 186.098 1070.81 158.547 C 1071.439 161.155 1070.621 163.883 1068.355 166.73 Z M 1078.175 79.987 C 1066.834 98.44 1056.898 119.267 1047.897 142.18 C 1088.371 92.638 1086.789 65.971 1078.175 79.987 Z M 424.441 108.201 C 415.034 110.318 411.074 107.392 418.712 99.2 C 424.078 93.445 430.478 92.894 430.169 103.292 C 430.151 103.902 431.126 103.469 430.169 104.11 C 427.836 105.673 427.563 106.491 424.441 108.201 Z M 1031.703 166.539 C 1003.782 202.654 979.943 174.498 1004.698 136.261 C 1014.372 121.319 1020.608 122.768 1018.372 133.225 C 1017.048 139.417 1004.224 152.04 1003.88 158.356 C 1000.061 182.36 1013.973 183.997 1033.34 158.356 C 1034.092 161.428 1033.546 164.155 1031.703 166.539 Z M 1028.43 108.437 C 1019.023 110.554 1015.063 107.628 1022.701 99.436 C 1028.067 93.681 1034.467 93.13 1034.158 103.528 C 1034.14 104.138 1035.115 103.705 1034.158 104.346 C 1031.825 105.909 1031.552 106.727 1028.43 108.437 Z M 731.315 167.94 C 733.292 157.909 731.315 147.209 726.405 136.025 L 713.312 154.846 C 719.001 168.329 730.761 170.752 731.315 167.94 Z M 731.315 172.031 C 725.041 174.213 716.863 171.279 710.857 160.575 C 705.675 151.34 703.052 175.116 720.677 180.214 C 725.184 181.517 728.73 178.79 731.315 172.031 Z M 819.695 124.486 L 817.24 143.39 C 833.566 117.895 857.354 119.891 858.975 137.661 C 862.297 174.079 823.223 183.176 818.058 182.67 C 812.619 182.137 813.659 177.457 815.603 177.76 C 824.788 179.193 838.161 171.555 845.881 154.846 C 854.632 135.907 841.447 121.493 821.775 143.666 C 817.838 148.104 814.882 151.082 813.148 158.119 C 804.75 192.201 800.303 208.894 799.236 211.311 C 796.09 218.437 795.151 222.474 791.871 221.949 C 786.502 221.089 784.865 218.089 786.961 212.948 C 798.418 184.852 805.51 154.028 808.238 120.476 C 813.693 118.539 817.512 119.876 819.695 124.486 Z M 1187.799 166.689 C 1189.776 156.658 1187.799 145.958 1182.889 134.774 L 1169.796 153.595 C 1175.485 167.078 1187.245 169.501 1187.799 166.689 Z M 1187.799 170.78 C 1181.525 172.962 1173.347 170.028 1167.341 159.324 C 1162.159 150.089 1159.536 173.865 1177.161 178.963 C 1181.668 180.266 1185.214 177.539 1187.799 170.78 Z M 950.969 123.257 L 948.514 142.161 C 964.84 116.666 988.628 118.662 990.249 136.432 C 993.571 172.85 954.497 181.947 949.332 181.441 C 943.893 180.908 944.933 176.228 946.877 176.531 C 956.062 177.964 969.435 170.326 977.155 153.617 C 985.906 134.678 972.721 120.264 953.049 142.437 C 949.112 146.875 946.156 149.853 944.422 156.89 C 936.024 190.972 931.577 207.665 930.51 210.082 C 927.364 217.208 926.425 221.245 923.145 220.72 C 917.776 219.86 916.139 216.86 918.235 211.719 C 924.806 195.606 929.941 178.595 933.64 160.688 C 914.27 183.972 901.656 188.025 895.799 172.85 L 895.799 165.484 C 884.097 182.135 872.095 189.501 864.703 184.306 C 853.935 176.739 856.41 158.257 878.614 134.388 C 892.53 119.428 911.836 115.533 916.257 131.115 C 918.763 139.947 909.783 141.99 910.53 138.48 C 913.552 124.28 908.498 127.793 902.346 127.023 C 892.55 125.796 880.724 143.757 874.523 156.483 C 865.772 174.442 873.073 182.807 881.887 175.304 C 890.497 167.975 898.232 159.54 905.619 147.481 C 910.051 140.245 915.426 148.306 913.803 150.755 C 894.452 179.954 914.621 187.307 935.079 153.21 C 935.083 153.214 935.086 153.219 935.09 153.223 C 937.09 142.227 938.564 130.901 939.512 119.247 C 944.967 117.31 948.786 118.647 950.969 123.257 Z"/>
</svg>