<?xml version="1.0" encoding="utf-8"?>
<svg viewBox="16.655 227.739 465.882 14.392" xmlns="http://www.w3.org/2000/svg" xmlns:bx="https://boxy-svg.com">
  <defs>
    <linearGradient id="gradient-1" bx:pinned="true">
      <stop style="stop-color: rgb(10, 153, 63);" offset="0"/>
      <stop style="stop-color: rgb(169, 255, 124);" offset="1"/>
    </linearGradient>
  </defs>
  <path style="opacity: 0.24; fill: url(#gradient-1);" d="M 21.095 228.924 C 21.095 228.924 17.938 230.108 17.148 232.475 C 16.358 234.842 16.754 239.974 16.754 240.368 C 16.754 240.762 17.543 242.736 19.516 241.947 C 21.489 241.158 41.222 239.185 65.295 241.553 C 65.295 241.553 75.029 241.289 96.866 239.973 C 110.919 239.126 125.783 239.785 139.882 241.158 L 175.795 241.158 L 205.393 238.395 L 249.198 238 L 282.348 238.79 L 317.471 240.763 L 358.119 241.552 L 396.4 240.368 L 439.021 240.368 L 465.462 240.368 C 471.118 240.237 474.407 239.053 479.669 239.184 C 484.469 239.304 479.995 238.646 472.96 237.606 C 469.964 237.163 469.168 238.625 467.041 237.211 C 465.092 235.915 465.085 236.375 481.643 234.054 C 484.021 233.721 481.652 233.319 474.539 232.87 C 470.073 232.588 464.04 232.517 459.542 232.87 C 450.4 233.588 444.744 233.325 435.469 232.475 C 429.094 231.891 420.807 232.023 414.553 230.502 C 412.632 230.035 383.428 230.692 381.404 230.897 C 363.603 232.7 346.107 231.253 328.127 230.503 C 325.493 230.393 317.541 230.646 314.314 230.502 C 306.928 230.173 305.742 231.497 298.923 229.713 C 291.332 227.727 282.387 228.67 273.666 228.529 C 257.75 228.272 239.991 227.745 223.546 227.739 C 211.569 227.734 200.388 228.129 188.423 228.923 C 180.013 229.481 172.12 229.876 163.166 230.107 C 151.331 230.413 139.096 230.019 127.253 229.713 C 121.958 229.576 114.2 229.256 107.127 228.923 C 98.963 228.539 91.217 229.097 76.739 229.713 C 67.404 230.11 58.065 229.847 48.72 228.924 C 39.818 228.044 30.61 228.044 21.095 228.924 Z" transform="matrix(-1, 0, 0, -1, 499.191254, 469.870361)"/>
</svg>