<?xml version="1.0" encoding="utf-8"?>
<svg viewBox="59.05 130.322 390.364 13.926" xmlns="http://www.w3.org/2000/svg" xmlns:bx="https://boxy-svg.com">
  <defs>
    <linearGradient id="gradient-1" bx:pinned="true">
      <stop offset="0" style="stop-color: rgb(0, 146, 59);"/>
      <stop offset="1" style="stop-color: rgb(169, 255, 124);"/>
    </linearGradient>
  </defs>
  <path style="fill: url(#gradient-1);" d="M 62.601 142.984 L 59.05 138.248 L 59.05 132.329 L 62.207 130.355 C 71.547 131.934 80.624 132.197 89.437 131.145 C 98.582 130.054 107.79 130.185 117.062 131.539 C 130.209 133.459 143.495 133.459 156.921 131.539 C 163.564 130.589 170.273 130.458 177.048 131.145 C 188.845 132.342 200.684 132.999 212.565 133.118 C 223.484 133.227 234.402 133.359 245.321 133.513 C 268.484 133.84 291.637 133.05 314.778 131.145 C 330.775 129.828 346.823 130.091 362.924 131.934 C 371.681 132.937 380.495 133.068 389.365 132.329 C 401.56 131.312 413.794 131.049 426.067 131.539 C 429.093 131.66 432.119 131.528 435.144 131.145 C 437.296 130.872 438.612 131.793 440.669 132.723 C 442.385 133.499 444.883 134.138 446.983 133.907 C 448.297 133.762 447.376 134.289 444.221 135.486 C 441.021 136.701 437.601 134.99 433.96 135.091 C 432.829 135.122 433.749 135.78 436.722 137.064 L 444.231 137.064 C 445.543 137.985 447.118 138.906 448.956 139.827 C 450.249 140.476 448.802 140.476 444.615 139.827 C 441.882 139.404 439.12 139.272 436.328 139.432 C 432.779 139.635 429.251 139.256 425.672 139.038 C 414.436 138.354 404.307 139.012 391.733 141.011 C 386.534 141.837 381.432 141.818 375.947 141.405 C 346.568 139.194 317.257 140.681 285.969 142.589 C 262.573 144.016 242.973 145.068 219.274 143.378 C 192.504 141.469 165.714 140.904 138.767 142.589 C 129.97 143.139 121.156 143.008 112.326 142.195 C 103.807 141.411 95.343 142.509 86.675 142.984 C 78.612 143.425 70.983 143.426 62.601 142.984 Z"/>
</svg>