<?xml version="1.0" encoding="utf-8"?>
<svg viewBox="59.05 130.321 390.364 13.926" xmlns="http://www.w3.org/2000/svg" xmlns:bx="https://boxy-svg.com">
  <defs>
    <linearGradient id="gradient-1" bx:pinned="true">
      <stop offset="0" style="stop-color: rgb(0, 146, 59);"/>
      <stop offset="1" style="stop-color: rgb(169, 255, 124);"/>
    </linearGradient>
  </defs>
  <path style="fill: url(#gradient-1);" d="M 62.601 131.585 L 59.05 136.321 L 59.05 142.24 L 62.207 144.214 C 71.547 142.635 80.624 142.372 89.437 143.424 C 98.582 144.515 107.79 144.384 117.062 143.03 C 130.209 141.11 143.495 141.11 156.921 143.03 C 163.564 143.98 170.273 144.111 177.048 143.424 C 188.845 142.227 200.684 141.57 212.565 141.451 C 223.484 141.342 234.402 141.21 245.321 141.056 C 268.484 140.729 291.637 141.519 314.778 143.424 C 330.775 144.741 346.823 144.478 362.924 142.635 C 371.681 141.632 380.495 141.501 389.365 142.24 C 401.56 143.257 413.794 143.52 426.067 143.03 C 429.093 142.909 432.119 143.041 435.144 143.424 C 437.296 143.697 438.612 142.776 440.669 141.846 C 442.385 141.07 444.883 140.431 446.983 140.662 C 448.297 140.807 447.376 140.28 444.221 139.083 C 441.021 137.868 437.601 139.579 433.96 139.478 C 432.829 139.447 433.749 138.789 436.722 137.505 L 444.231 137.505 C 445.543 136.584 447.118 135.663 448.956 134.742 C 450.249 134.093 448.802 134.093 444.615 134.742 C 441.882 135.165 439.12 135.297 436.328 135.137 C 432.779 134.934 429.251 135.313 425.672 135.531 C 414.436 136.215 404.307 135.557 391.733 133.558 C 386.534 132.732 381.432 132.751 375.947 133.164 C 346.568 135.375 317.257 133.888 285.969 131.98 C 262.573 130.553 242.973 129.501 219.274 131.191 C 192.504 133.1 165.714 133.665 138.767 131.98 C 129.97 131.43 121.156 131.561 112.326 132.374 C 103.807 133.158 95.343 132.06 86.675 131.585 C 78.612 131.144 70.983 131.143 62.601 131.585 Z" transform="matrix(-1, 0, 0, -1, 508.463623, 274.568573)"/>
</svg>