<?xml version="1.0" encoding="utf-8"?>
<svg viewBox="16.655 227.739 465.882 14.392" xmlns="http://www.w3.org/2000/svg" xmlns:bx="https://boxy-svg.com">
  <defs>
    <linearGradient id="gradient-1" bx:pinned="true">
      <stop offset="0" style="stop-color: rgb(10, 153, 63);"/>
      <stop offset="1" style="stop-color: rgb(169, 255, 124);"/>
    </linearGradient>
  </defs>
  <path style="opacity: 0.24; fill: url(#gradient-1);" d="M 21.095 240.946 C 21.095 240.946 17.938 239.762 17.148 237.395 C 16.358 235.028 16.754 229.896 16.754 229.502 C 16.754 229.108 17.543 227.134 19.516 227.923 C 21.489 228.712 41.222 230.685 65.295 228.317 C 65.295 228.317 75.029 228.581 96.866 229.897 C 110.919 230.744 125.783 230.085 139.882 228.712 L 175.795 228.712 L 205.393 231.475 L 249.198 231.87 L 282.348 231.08 L 317.471 229.107 L 358.119 228.318 L 396.4 229.502 L 439.021 229.502 L 465.462 229.502 C 471.118 229.633 474.407 230.817 479.669 230.686 C 484.469 230.566 479.995 231.224 472.96 232.264 C 469.964 232.707 469.168 231.245 467.041 232.659 C 465.092 233.955 465.085 233.495 481.643 235.816 C 484.021 236.149 481.652 236.551 474.539 237 C 470.073 237.282 464.04 237.353 459.542 237 C 450.4 236.282 444.744 236.545 435.469 237.395 C 429.094 237.979 420.807 237.847 414.553 239.368 C 412.632 239.835 383.428 239.178 381.404 238.973 C 363.603 237.17 346.107 238.617 328.127 239.367 C 325.493 239.477 317.541 239.224 314.314 239.368 C 306.928 239.697 305.742 238.373 298.923 240.157 C 291.332 242.143 282.387 241.2 273.666 241.341 C 257.75 241.598 239.991 242.125 223.546 242.131 C 211.569 242.136 200.388 241.741 188.423 240.947 C 180.013 240.389 172.12 239.994 163.166 239.763 C 151.331 239.457 139.096 239.851 127.253 240.157 C 121.958 240.294 114.2 240.614 107.127 240.947 C 98.963 241.331 91.217 240.773 76.739 240.157 C 67.404 239.76 58.065 240.023 48.72 240.946 C 39.818 241.826 30.61 241.826 21.095 240.946 Z"/>
</svg>