<?xml version="1.0" encoding="utf-8"?>
<svg viewBox="24.086 152.271 385.428 13.44" xmlns="http://www.w3.org/2000/svg">
  <path style="fill: rgb(216, 216, 216);" d="M 31.979 165.294 C 66.839 165.689 99.594 165.031 130.244 163.321 C 140.621 162.742 164.733 164.051 175.567 162.932 L 175.628 162.926 L 175.691 162.927 C 187.665 163.19 199.326 163.188 210.769 162.925 C 229.451 162.137 247.866 162.137 266.024 162.926 C 272.859 163.223 279.692 163.75 286.523 164.505 C 294.77 165.417 303.057 165.812 311.385 165.689 C 343.501 165.216 375.187 163.989 407.245 161.746 C 407.802 161.702 408.287 161.538 408.6 161.196 C 408.967 160.891 409.22 160.41 409.352 159.806 C 409.672 158.614 409.52 156.895 408.876 154.688 C 408.746 154.357 408.575 154.184 408.332 154.121 C 408.067 153.987 407.711 153.92 407.322 153.895 C 406.553 153.826 405.804 153.944 405.085 154.185 L 404.911 154.243 L 404.719 154.232 L 391.181 153.454 L 335.039 152.271 L 243.886 155.033 L 202.452 155.033 L 170.064 154.246 L 140.868 155.823 L 106.141 155.425 L 84.425 153.849 L 40.262 154.244 L 26.848 154.244 L 26.848 154.244 L 24.086 156.612 L 24.086 156.612 L 24.086 156.613 L 25.27 162.532 L 25.27 162.532 L 31.979 165.294" transform="matrix(-1, 0, 0, -1, 433.599945, 317.981903)"/>
</svg>