<?xml version="1.0" encoding="utf-8"?>
<svg viewBox="24.086 152.271 385.428 13.44" xmlns="http://www.w3.org/2000/svg">
  <path style="fill: rgb(216, 216, 216);" d="M 31.979 152.688 C 66.839 152.293 99.594 152.951 130.244 154.661 C 140.621 155.24 164.733 153.931 175.567 155.05 L 175.628 155.056 L 175.691 155.055 C 187.665 154.792 199.326 154.794 210.769 155.057 C 229.451 155.845 247.866 155.845 266.024 155.056 C 272.859 154.759 279.692 154.232 286.523 153.477 C 294.77 152.565 303.057 152.17 311.385 152.293 C 343.501 152.766 375.187 153.993 407.245 156.236 C 407.802 156.28 408.287 156.444 408.6 156.786 C 408.967 157.091 409.22 157.572 409.352 158.176 C 409.672 159.368 409.52 161.087 408.876 163.294 C 408.746 163.625 408.575 163.798 408.332 163.861 C 408.067 163.995 407.711 164.062 407.322 164.087 C 406.553 164.156 405.804 164.038 405.085 163.797 L 404.911 163.739 L 404.719 163.75 L 391.181 164.528 L 335.039 165.711 L 243.886 162.949 L 202.452 162.949 L 170.064 163.736 L 140.868 162.159 L 106.141 162.557 L 84.425 164.133 L 40.262 163.738 L 26.848 163.738 L 26.848 163.738 L 24.086 161.37 L 24.086 161.37 L 24.086 161.369 L 25.27 155.45 L 25.27 155.45 L 31.979 152.688"/>
</svg>