<?xml version="1.0" encoding="utf-8"?>
<svg viewBox="131.699 118.226 209.844 225.978" xmlns="http://www.w3.org/2000/svg" xmlns:bx="https://boxy-svg.com">
  <defs>
    <linearGradient id="gradient-2" bx:pinned="true">
      <stop style="stop-color: rgb(255, 85, 96);" offset="0"/>
      <stop offset="1" style="stop-color: rgb(255, 140, 104);"/>
    </linearGradient>
  </defs>
  <path style="fill-rule: evenodd; stroke-width: 0px; fill: url(#gradient-2);" d="M 180.624 293.924 L 181.445 158.456 C 233.716 135.194 287.082 121.784 341.543 118.226 L 341.543 301.624 C 335.796 330.256 275.589 334.805 274.22 305.419 C 273.597 292.046 282.354 281.92 300.492 275.041 C 309.286 271.706 318.591 273.074 328.407 279.146 L 328.407 174.043 C 281.609 172.952 238.095 179.525 197.865 193.76 L 197.865 318.517 C 192.939 334.129 181.992 342.625 165.024 344.006 C 145.309 345.61 128.611 337.418 132.184 321.839 C 137.014 300.777 148.235 289.009 180.624 293.924 Z M 198.397 181.364 C 239.174 168.501 282.156 159.825 325.123 156.814 L 325.123 137.49 C 281.609 140.921 239.19 151.468 197.865 169.13 L 198.397 181.364 Z"/>
</svg>