<?xml version="1.0" encoding="utf-8"?>
<svg viewBox="-128.478 33.704 1052.05 179.281" xmlns="http://www.w3.org/2000/svg" xmlns:bx="https://boxy-svg.com">
  <defs>
    <linearGradient id="gradient-1" bx:pinned="true">
      <stop offset="0" style="stop-color: rgb(26, 156, 65);"/>
      <stop offset="1" style="stop-color: rgb(169, 255, 124);"/>
    </linearGradient>
  </defs>
  <path style="fill: url(#gradient-1);" d="M -69.364 151.162 C -68.247 151.756 -64.121 164.249 -65.466 166.939 C -86.518 166.17 -103.206 167.582 -115.529 171.177 C -114.401 172.869 -125.437 162.79 -128.478 158.228 C -115.758 139.859 -92.307 60.862 -92.471 48.281 C -83.469 49.645 -76.377 53.464 -72.831 61.375 L -111.293 158.756 C -104.979 156.164 -59.101 147.453 -69.364 151.162 Z M 0.159 158.097 C -20.591 167.45 -22.523 153.544 -18.822 139.116 C -31.543 156.239 -41.636 163.604 -49.101 161.211 C -71.632 153.989 -46.263 102.162 -24.552 91.653 C -16.788 87.895 -5.211 97.997 -9.002 100.655 C -35.187 119.012 -47.474 134.543 -45.827 147.3 C -43.644 164.212 -29.46 147.845 -3.273 98.2 C -1.924 96.851 6.689 103.575 5.887 104.377 C 5.658 104.32 -17.253 158.245 0.159 158.097 Z M 106.383 103.928 C 109.608 91.004 98.082 98.206 70.376 131.994 C 68.933 130.551 44.33 211.27 45.008 211.948 C 21.003 210.583 64.629 94.724 78.559 76.105 L 94.523 82.249 C 85.758 93.436 80.191 104.624 77.823 115.811 C 79.526 112.57 100.676 91.715 101.068 92.876 C 101.068 92.876 116.739 85.857 117.84 104.746 C 120.083 143.236 81.764 163.774 70.377 157.119 C 90.092 141.984 100.264 128.448 106.383 103.928 Z M 179.982 157.882 C 159.232 167.235 157.3 153.329 161.001 138.901 C 148.28 156.024 138.187 163.389 130.722 160.996 C 108.191 153.774 133.56 101.947 155.271 91.438 C 163.035 87.68 174.612 97.782 170.821 100.44 C 144.636 118.797 132.349 134.328 133.996 147.085 C 136.179 163.997 150.363 147.63 176.55 97.985 C 177.899 96.636 186.512 103.36 185.71 104.162 C 185.481 104.105 162.57 158.03 179.982 157.882 Z M 238.077 34.313 C 240.187 30.604 257.726 45.025 255.319 45.827 C 222.272 88.498 210.085 126.538 207.038 167.758 C 186.751 163.918 197.097 106.343 238.077 34.313 Z M 249.591 162.848 C 218.088 166.08 227.536 116.414 245.499 100.655 C 262.962 85.336 275.642 84.687 281.632 98.074 C 286.972 110.009 267.627 133.028 242.226 141.571 C 241.953 164.484 253.683 164.484 277.414 141.571 C 269.322 155.103 259.666 161.814 249.591 162.848 Z M 272.504 103.11 C 263.503 100.927 252.864 112.93 243.862 135.843 C 261.685 130.599 280.458 105.039 272.504 103.11 Z M 414.48 163.089 C 382.977 166.321 392.425 116.655 410.388 100.896 C 427.851 85.577 440.531 84.928 446.521 98.315 C 451.861 110.25 432.516 133.269 407.115 141.812 C 406.842 164.725 418.572 164.725 442.303 141.812 C 434.211 155.344 424.555 162.055 414.48 163.089 Z M 437.393 103.351 C 428.392 101.168 417.753 113.171 408.751 136.084 C 426.574 130.84 445.347 105.28 437.393 103.351 Z M 315.057 165.303 C 312.462 165.405 301.867 164.322 294.599 153.846 C 292.226 150.425 293.508 135.024 305.237 102.291 L 297.054 102.291 L 294.594 93.711 L 309.725 93.711 C 307.678 97.26 324.441 69.068 325.696 68.74 C 332.242 68.195 337.697 69.831 342.062 73.65 L 327.332 94.108 L 342.062 94.108 L 340.447 99.018 L 324.877 99.018 C 301.691 151.118 303.055 169.394 328.969 153.846 C 325.402 158.964 319.858 165.114 315.057 165.303 Z M 367.925 165.351 C 365.33 165.453 354.735 164.37 347.467 153.894 C 345.094 150.473 346.376 135.072 358.105 102.339 L 349.922 102.339 L 347.462 93.759 L 362.593 93.759 C 360.546 97.308 377.309 69.116 378.564 68.788 C 385.11 68.243 390.565 69.879 394.93 73.698 L 380.2 94.156 L 394.93 94.156 L 393.315 99.066 L 377.745 99.066 C 354.559 151.166 355.923 169.442 381.837 153.894 C 378.27 159.012 372.726 165.162 367.925 165.351 Z M 896.567 165.351 C 893.972 165.453 883.377 164.37 876.109 153.894 C 873.736 150.473 875.018 135.072 886.747 102.339 L 878.564 102.339 L 876.104 93.759 L 891.235 93.759 C 889.188 97.308 905.951 69.116 907.206 68.788 C 913.752 68.243 919.207 69.879 923.572 73.698 L 908.842 94.156 L 923.572 94.156 L 921.957 99.066 L 906.387 99.066 C 883.201 151.166 884.565 169.442 910.479 153.894 C 906.912 159.012 901.368 165.162 896.567 165.351 Z M 530.278 35.188 C 575.559 88.107 536.279 164.212 507.365 166.94 C 491.239 168.461 475.386 144.079 499.182 108.838 C 504.367 101.159 511.187 94.885 519.64 90.016 C 525.189 86.82 530.747 89.547 536.309 96.705 C 535.846 77.489 530.074 58.409 516.367 47.463 C 512.3 43.313 528.46 32.22 530.137 34.511 Z M 517.394 154.455 C 528.635 146.347 536.744 121.861 536.324 97.429 C 519.603 99.847 477.626 183.136 517.394 154.455 Z M 590.016 140.753 C 577.883 154.9 572.701 161.719 566.285 161.211 C 546.213 159.622 548.863 136.178 573.65 92.471 C 577.591 85.522 595.321 89.341 592.471 94.108 C 582.525 110.745 571.847 125.982 567.921 147.3 C 564.609 165.282 594.694 136.613 608.02 95.745 C 610.247 88.915 627.588 93.511 625.205 98.2 C 608.292 131.479 602.837 151.664 608.838 158.756 C 588.925 162.302 590.016 140.753 590.016 140.753 Z M 832.257 141.003 C 820.124 155.15 814.942 161.969 808.526 161.461 C 788.454 159.872 791.104 136.428 815.891 92.721 C 819.832 85.772 837.562 89.591 834.712 94.358 C 824.766 110.995 814.088 126.232 810.162 147.55 C 806.85 165.532 836.935 136.863 850.261 95.995 C 852.488 89.165 869.829 93.761 867.446 98.45 C 850.533 131.729 845.078 151.914 851.079 159.006 C 831.166 162.552 832.257 141.003 832.257 141.003 Z M 853.519 67.103 C 834.919 77.3 824.063 74.641 828.969 72.013 C 838.244 67.045 848.071 63.336 847.791 54.01 C 847.647 49.209 861.013 50.573 860.884 53.191 C 860.441 62.186 860.884 70.103 866.612 81.833 C 865.672 85.592 852.285 72.039 853.519 67.103 Z M 725.041 105.565 C 699.127 199.946 669.394 232.133 635.843 202.128 C 659.882 222.372 693.542 174.437 691.912 146.059 C 676.389 164.547 663.095 155.176 662.823 144.422 C 661.908 108.27 706.64 71.812 723.403 93.29 C 699.3 92.777 677.015 137.451 675.934 140.759 C 667.628 166.176 692.18 145.17 715.221 104.746 C 716.707 102.139 719.98 102.412 725.041 105.565 Z M 747.955 157.119 C 758.691 160.678 789.905 128.603 776.596 102.291 C 776.34 101.785 776.266 101.283 776.347 100.816 C 747.304 119.671 737.734 153.731 747.955 157.119 Z M 787.234 101.473 C 801.083 114.828 777.222 159.279 754.5 162.029 C 733.867 164.526 721.189 147.192 734.861 120.295 C 741.28 107.668 754.605 88.035 766.776 88.379 C 770.914 88.496 777.209 92.347 776.658 100.007 C 777.958 97.908 782.741 97.14 787.234 101.473 Z"/>
</svg>